<svg xmlns="http://www.w3.org/2000/svg" xmlns:xlink="http://www.w3.org/1999/xlink" viewBox="0,0,256,256" width="50px"
    height="50px" fill-rule="nonzero">
    <g transform="translate(-10.24,-10.24) scale(1.08,1.08)">
        <g fill="rgba(0,0,0,0)" fill-rule="nonzero" stroke="none" stroke-width="1" stroke-linecap="butt"
            stroke-linejoin="miter" stroke-miterlimit="10" stroke-dasharray="" stroke-dashoffset="0" font-family="none"
            font-weight="none" font-size="none" text-anchor="none" style="mix-blend-mode: normal">
            <path d="M9.48148,246.51852v-237.03704h237.03704v237.03704z" id="bgRectangle"></path>
        </g>
        <g fill="#f6f6f6" fill-rule="nonzero" stroke="none" stroke-width="1" stroke-linecap="butt"
            stroke-linejoin="miter" stroke-miterlimit="10" stroke-dasharray="" stroke-dashoffset="0" font-family="none"
            font-weight="none" font-size="none" text-anchor="none" style="mix-blend-mode: normal">
            <g transform="scale(5.12,5.12)">
                <path
                    d="M25,2c-12.683,0 -23,10.317 -23,23c0,12.683 10.317,23 23,23c12.683,0 23,-10.317 23,-23c0,-12.683 -10.317,-23 -23,-23zM19,15c4,5 1,10 1,10h-7zM41,29l-2.895,1.447c-0.708,0.354 -1.246,0.974 -1.496,1.725v0c-0.961,2.883 -3.659,5.828 -6.698,5.828h-9.123c-4.551,0 -8.491,-4.161 -9.478,-8.603l-0.31,-1.397h8c0,1.657 1.343,3 3,3h3v-4h-3c5,-7 -1,-14 -1,-14c0,0 1.798,0.559 4,1.244v-2.244c0,-0.553 0.447,-1 1,-1c0.553,0 1,0.447 1,1v2.867c11,6.533 3,12.133 3,12.133h-3v4h3.242c0.494,0 0.977,-0.146 1.388,-0.42l2.37,-1.58l7,-2z">
                </path>
            </g>
        </g>
    </g>
</svg>