<svg width="17" height="28" viewBox="0 0 17 28" fill="none" xmlns="http://www.w3.org/2000/svg">
<g clip-path="url(#clip0_127_69740)">
<path d="M16.0367 14.2029C14.6143 15.0548 13.2214 15.8901 11.8286 16.7245C10.6376 17.4378 9.44585 18.1493 8.25737 18.8667C8.11537 18.9522 8.00375 18.9896 7.83959 18.8908C5.28532 17.3522 2.72613 15.8212 0.168585 14.2876C0.125084 14.2618 0.0856865 14.2295 0.0290527 14.1888C2.68756 9.69182 5.34278 5.20068 8.02919 0.657227C10.7115 5.19403 13.3651 9.68268 16.0375 14.2029H16.0367Z" fill="black"/>
<path d="M15.967 15.9125C13.3282 19.673 10.6894 23.4343 8.02516 27.2305C5.36173 23.4285 2.72457 19.6655 0.0874023 15.9017C0.0972517 15.8851 0.107101 15.8685 0.11695 15.8511C0.206415 15.8992 0.297522 15.9449 0.384524 15.9972C2.8403 17.4594 5.29771 18.9199 7.74856 20.3904C7.95129 20.5116 8.09328 20.5182 8.30094 20.3945C10.7534 18.9265 13.2125 17.4693 15.6707 16.0097C15.7561 15.959 15.8439 15.9125 15.9301 15.8644C15.9424 15.8801 15.9547 15.8959 15.967 15.9117V15.9125Z" fill="black"/>
</g>
<defs>
<clipPath id="clip0_127_69740">
<rect width="16.0077" height="26.5732" fill="white" transform="translate(0.0290527 0.657227)"/>
</clipPath>
</defs>
</svg>
