<svg width="19" height="24" viewBox="0 0 19 24" fill="none" xmlns="http://www.w3.org/2000/svg">
<g clip-path="url(#clip0_127_69736)">
<path d="M18.1185 4.46867L16.5403 2.73762C16.4551 2.64258 16.3401 2.57801 16.213 2.55407L16.1854 2.54899L13.4692 2.04622C13.4221 1.90547 13.3362 1.77996 13.2211 1.68347C13.1412 1.616 13.0448 1.56957 12.9409 1.54853H12.9237L9.48127 0.907911C9.40132 0.892675 9.31837 0.892675 9.23842 0.907911L6.25922 1.41576C5.72122 1.51153 5.45745 2.02881 5.47613 2.49095L5.53366 3.99564L3.17093 3.56034C2.90417 3.51899 2.63816 3.63869 2.49842 3.86287L0.929245 6.18447C0.70433 6.50224 0.634838 6.98978 0.970343 7.35906L5.85871 12.714L6.2114 21.8698C6.22634 22.3007 6.45724 22.6171 6.80171 22.6773L10.2584 23.3164H10.2644C10.307 23.3237 10.3495 23.3273 10.3929 23.3273C10.4474 23.3273 10.502 23.3222 10.5558 23.3121L12.521 22.9747C12.994 22.8964 13.2817 22.411 13.2869 21.9873L13.3982 12.706L18.1618 5.65341C18.4256 5.27034 18.4069 4.78136 18.1185 4.46867ZM5.87589 2.19205L8.97764 2.76519C8.94551 2.88345 8.93131 3.00533 8.93579 3.12794L9.07104 6.69958L6.95713 4.37798C6.87195 4.28294 6.75688 4.21764 6.6291 4.1937L6.59996 4.1879L5.89981 4.05876L5.83928 2.47136C5.83554 2.37705 5.8475 2.28273 5.87589 2.19205ZM1.23187 6.37601L2.80105 4.05441C2.86008 3.95356 2.97516 3.89625 3.09396 3.90931L5.99769 4.44327C5.9835 4.46069 5.97005 4.4781 5.95734 4.49696L4.38816 6.81856C4.31942 6.92231 4.26861 7.03694 4.23872 7.15664L1.13473 6.58422C1.15566 6.51022 1.18853 6.43985 1.23187 6.37601ZM6.13742 12.4775L1.24756 7.12037C1.20124 7.07103 1.16612 7.01372 1.14295 6.95133L4.21182 7.51939C4.23349 7.69859 4.3112 7.86618 4.43599 7.99967L9.00977 13.0114L6.13742 12.4775ZM6.87046 22.3247C6.61191 22.2811 6.58352 21.9278 6.58128 21.8567L6.23456 12.8605L9.32809 13.4329L9.67779 22.5097C9.68078 22.6279 9.7032 22.7447 9.74355 22.8557L6.87046 22.3247ZM9.71889 2.05202C9.47903 2.09483 9.26831 2.2305 9.13456 2.42856L6.0911 1.86557C6.15611 1.81479 6.23307 1.77996 6.31526 1.76473L9.29446 1.25688C9.33182 1.25035 9.36993 1.25107 9.40655 1.25833L11.7902 1.69943L9.71889 2.05202ZM15.5405 2.85806L13.4827 5.90153L13.5163 2.41913L15.5794 2.80074C15.5674 2.82033 15.5532 2.83919 15.5405 2.85806Z" fill="black"/>
</g>
<defs>
<clipPath id="clip0_127_69736">
<rect width="17.6084" height="22.431" fill="white" transform="translate(0.739502 0.895996)"/>
</clipPath>
</defs>
</svg>
